<svg width="246" height="246" viewBox="0 0 246 246" fill="none" xmlns="http://www.w3.org/2000/svg">
<rect width="246" height="246" rx="123" fill="#E30613"/>
<path fill-rule="evenodd" clip-rule="evenodd" d="M123.063 137.806L160.107 174.808C162.072 176.772 164.738 177.875 167.518 177.875C170.298 177.875 172.964 176.772 174.93 174.808C176.896 172.845 178 170.182 178 167.405C178 164.628 176.896 161.965 174.93 160.002L137.872 123L174.923 85.9981C175.896 85.0259 176.667 83.8718 177.194 82.6018C177.72 81.3317 177.991 79.9705 177.991 78.596C177.99 77.2214 177.719 75.8603 177.192 74.5905C176.665 73.3207 175.893 72.167 174.92 71.1953C173.946 70.2235 172.791 69.4528 171.519 68.9271C170.248 68.4013 168.885 68.1309 167.509 68.1312C166.133 68.1316 164.77 68.4026 163.499 68.9289C162.228 69.4553 161.073 70.2265 160.1 71.1987L123.063 108.201L86.0185 71.1987C85.0524 70.1987 83.8966 69.4008 82.6184 68.8517C81.3403 68.3025 79.9655 68.0132 78.5742 68.0004C77.1829 67.9877 75.803 68.2519 74.5151 68.7775C73.2271 69.3032 72.0568 70.0798 71.0725 71.062C70.0882 72.0443 69.3096 73.2125 68.7822 74.4985C68.2547 75.7845 67.9889 77.1626 68.0004 78.5523C68.0118 79.942 68.3002 81.3155 68.8487 82.5927C69.3973 83.8699 70.195 85.0252 71.1953 85.9911L108.253 123L71.2023 160.009C70.202 160.975 69.4043 162.13 68.8557 163.407C68.3072 164.684 68.0188 166.058 68.0073 167.448C67.9959 168.837 68.2617 170.215 68.7891 171.502C69.3166 172.788 70.0952 173.956 71.0795 174.938C72.0638 175.92 73.2341 176.697 74.522 177.222C75.81 177.748 77.1899 178.012 78.5812 178C79.9725 177.987 81.3473 177.697 82.6254 177.148C83.9035 176.599 85.0594 175.801 86.0255 174.801L123.063 137.806Z" fill="white"/>
</svg>
