<svg width="248" height="248" viewBox="0 0 248 248" fill="none" xmlns="http://www.w3.org/2000/svg">
<path d="M124 0.625C156.721 0.625 188.102 13.6234 211.239 36.7607C234.377 59.898 247.375 91.2789 247.375 124C247.375 156.721 234.377 188.102 211.239 211.239C188.102 234.377 156.721 247.375 124 247.375C91.2789 247.375 59.898 234.377 36.7607 211.239C13.6234 188.102 0.625 156.721 0.625 124C0.625 91.2789 13.6234 59.898 36.7607 36.7607C59.898 13.6234 91.2789 0.625 124 0.625ZM108.631 148.34L81.2241 120.916C80.2416 119.933 79.0752 119.154 77.7914 118.622C76.5077 118.09 75.1318 117.817 73.7423 117.817C72.3528 117.817 70.9769 118.09 69.6932 118.622C68.4095 119.154 67.243 119.933 66.2605 120.916C64.2762 122.9 63.1614 125.591 63.1614 128.397C63.1614 131.204 64.2762 133.895 66.2605 135.879L101.158 170.777C102.138 171.764 103.303 172.548 104.587 173.083C105.872 173.618 107.249 173.893 108.64 173.893C110.031 173.893 111.408 173.618 112.692 173.083C113.976 172.548 115.142 171.764 116.122 170.777L188.384 98.4966C189.38 97.5182 190.172 96.3523 190.715 95.0662C191.257 93.7801 191.54 92.3992 191.547 91.0033C191.553 89.6073 191.283 88.2239 190.752 86.9328C190.222 85.6418 189.44 84.4685 188.454 83.4809C187.467 82.4932 186.295 81.7106 185.005 81.1783C183.714 80.6459 182.331 80.3743 180.935 80.3792C179.539 80.384 178.158 80.6652 176.871 81.2065C175.585 81.7478 174.418 82.5385 173.438 83.533L108.631 148.34Z" fill="#2CB67D"/>
</svg>
