<svg id="Layer_1" data-name="Layer 1" xmlns="http://www.w3.org/2000/svg" viewBox="0 0 3045.19 2851.55"><defs><style>.cls-1{fill:#00a00b;}</style></defs><path class="cls-1" d="M2974,2760.52l-12.57,18-12.55,18-6.26,9c-2.12,3-4.45,5.79-6.66,8.69l-26.81,34.53c-4.32,5.85-9.3,11.21-14,16.76L2880.92,2882l-14.2,16.49-15,15.79-15,15.73c-5.05,5.18-9.8,10.63-15.18,15.5l-31.43,29.87c-5.12,5.06-10.64,9.74-16.13,14.42l-16.4,14.1-16.36,14.07c-5.6,4.51-11.35,8.86-17,13.29l-17,13.22c-5.72,4.34-11.18,9-17.17,13l-35.2,24.68c-47.72,31.66-97.07,60.39-148.32,84.89a1144.57,1144.57,0,0,1-321.69,99.14A1221.35,1221.35,0,0,1,2018.76,3279l-41.44-.63c-6.89.06-13.78-.55-20.66-1l-20.62-1.32-20.58-1.32-20.5-2.34-20.46-2.31c-6.81-.76-13.62-1.43-20.37-2.69l-40.53-6.62c-6.76-.92-13.4-2.7-20.09-4l-20-4.3c-6.66-1.46-13.34-2.78-20-4.33l-19.74-5.3-19.71-5.26c-6.57-1.74-13.14-3.4-19.57-5.64l-38.75-12.46c-6.49-1.9-12.76-4.55-19.11-6.89l-19-7.19-19-7.14-18.58-8.11c-12.33-5.52-24.81-10.56-37-16.39l-36.14-18-9-4.48c-3-1.59-5.87-3.3-8.81-4.94l-17.56-9.91c-23.69-12.6-46-27.7-68.61-41.78-11.06-7.5-21.85-15.39-32.77-23-5.41-3.88-10.94-7.57-16.25-11.58l-15.68-12.35-15.66-12.29c-5.21-4.09-10.51-8.06-15.41-12.55l-30-26.07c-5.08-4.2-9.74-8.92-14.5-13.49l-14.25-13.74-14.24-13.67-13.55-14.39-13.5-14.37c-4.42-4.85-9.17-9.36-13.29-14.5l-25.45-30c-4.35-4.88-8.29-10.12-12.25-15.33l-11.94-15.56-11.94-15.49-11.15-16.09-11.13-16.06c-3.66-5.38-7.57-10.56-10.87-16.19l-20.59-33.09c-26.26-44.8-49.74-90.92-69.44-138.48a1032.35,1032.35,0,0,1-73.63-295.85A1099.82,1099.82,0,0,1,932.25,2170l2.62-37.32c.25-6.22,1.27-12.39,2-18.58l2.22-18.51,2.21-18.47,3.16-18.35,3.1-18.31c1-6.09,2-12.19,3.45-18.21l8-36.14c1.14-6,3.14-11.93,4.68-17.89l4.88-17.8,4.87-17.75,5.81-17.5,5.73-17.47c1.91-5.81,3.65-11.67,6-17.34l13.2-34.23c2-5.74,4.66-11.28,7.15-16.87l7.45-16.72,7.38-16.7c2.57-5.52,5.51-10.9,8.23-16.35,5.58-10.84,10.87-21.77,16.56-32.5,12.35-21,23.62-42.5,37.3-62.59l9.78-15.29c1.64-2.53,3.2-5.11,4.89-7.62l5.31-7.34,21-29.39c7.14-9.66,15-18.83,22.3-28.27l11.15-14.06L1174.6,1569l11.83-13.42c4-4.44,7.69-9.08,12-13.22l24.91-25.51c4-4.36,8.46-8.32,12.83-12.33l13-12.07,13-12.08c4.47-3.88,9.09-7.59,13.6-11.4l13.56-11.37c4.57-3.72,8.83-7.77,13.67-11.18l28.14-21.29c4.57-3.67,9.51-6.89,14.38-10.19l14.55-9.9,14.46-9.94,15-9.15,14.94-9.17c5-3,9.84-6.24,15.07-8.9l30.67-16.8a1033.65,1033.65,0,0,1,127.56-55.23,1059.21,1059.21,0,0,1,133-35.54,1033,1033,0,0,1,135.32-15.36c45.14-1.76,90.08.28,134.4,4.68l33.12,4.22c5.52.49,11,1.81,16.43,2.72l16.37,2.92c5.45,1,10.9,1.83,16.33,2.89l16.16,3.79,16.13,3.68c5.37,1.19,10.75,2.33,16,4l31.74,9c5.32,1.28,10.45,3.39,15.67,5.08l15.58,5.28,15.56,5.18,15.26,6.12,15.25,6c5.06,2,10.22,3.75,15.13,6.21l29.79,13.55c2.47,1.14,5,2.15,7.42,3.39l7.26,3.81,7,3.65-54.93,146.64,816.22-194.12-474-719.36-69,184.21-4.12-1.51c-4.35-1.55-8.79-2.87-13.18-4.31L2435,736c-8.73-2.9-17.75-5-26.64-7.44l-26.76-7-26.73-6.9-27-5.75-27-5.62c-9-1.76-17.95-3.91-27.07-5.2l-54.44-8.55c-9-1.53-18.16-2.49-27.29-3.46l-27.34-2.93-27.31-2.82c-9.12-.7-18.27-1.15-27.39-1.71L2082.55,677c-9.12-.41-18.21-1.19-27.35-1.12l-54.71-.41c-72.86,1.21-145.35,6.93-216.76,18.31a1461.87,1461.87,0,0,0-409.26,128.82,1539.57,1539.57,0,0,0-184.23,107L1147,960.37c-7.27,5-14.15,10.6-21.12,16L1105,992.79l-20.74,16.45-20,17.33-20,17.37c-6.63,5.79-13.31,11.52-19.59,17.72l-38.08,36.57c-6.44,6-12.26,12.6-18.37,18.91l-18.09,19.15c-6,6.42-12.07,12.74-17.95,19.23l-17.14,20-17,20c-5.68,6.66-11.39,13.27-16.64,20.28l-32,41.52c-5.44,6.83-10.24,14.14-15.28,21.26L819.2,1300l-14.83,21.49-13.86,22.11c-9.1,14.81-18.55,29.38-27.19,44.4l-25.17,45.45-6.24,11.36-5.77,11.61-11.39,23.25c-15.73,30.69-28.6,62.72-42.14,94.27-6.28,16-12.07,32.24-18.05,48.33-2.91,8.08-6,16.08-8.73,24.22l-7.73,24.59-7.66,24.57c-2.53,8.19-5.18,16.33-7.2,24.68l-12.82,49.77c-2.27,8.24-3.86,16.67-5.62,25.05l-5.16,25.13-5.09,25.1c-1.43,8.42-2.67,16.88-4,25.31L586.69,1896c-1.18,8.45-2.79,16.8-3.51,25.31l-5.23,50.8c-1,8.43-1.41,16.93-1.86,25.42L574.73,2023l-1.29,25.4-.21,25.43-.09,25.39c.05,8.46-.21,16.91.31,25.36l2.28,50.61a1444.62,1444.62,0,0,0,27.5,199.56,1350.25,1350.25,0,0,0,139,372.13,1415.32,1415.32,0,0,0,107.79,165l30.53,38.47c5,6.49,10.54,12.51,15.87,18.7l16.14,18.43,16.2,18.34,17,17.62,17,17.56c5.65,5.85,11.27,11.72,17.31,17.2l35.6,33.33c5.81,5.66,12.24,10.67,18.35,16l18.56,15.73c6.2,5.21,12.33,10.5,18.59,15.62l19.27,14.79,19.27,14.73c6.44,4.88,12.76,9.89,19.5,14.35l39.86,27.43c6.55,4.68,13.47,8.81,20.32,13.05l20.53,12.66,20.52,12.61c6.92,4.08,14,7.81,21,11.71,14.09,7.67,28,15.54,42.22,22.94,28.86,13.86,57.23,28.46,86.88,40.29l22,9.29c3.67,1.52,7.31,3.12,11,4.58l11.22,4.11,44.82,16.32c15,5.19,30.32,9.54,45.44,14.3l22.72,6.93,23,5.88,23,5.83c7.68,1.87,15.27,4,23.07,5.45l46.46,9.33c7.7,1.68,15.52,2.78,23.33,3.94l23.38,3.5,23.34,3.46c7.81.92,15.66,1.6,23.48,2.41l23.45,2.31c7.83.67,15.59,1.77,23.45,2l47,2.3c7.8.52,15.64.44,23.46.44h23.46l23.41,0,23.39-1.1,23.35-1.16c7.77-.41,15.54-.64,23.29-1.54l46.41-4.56a1349.69,1349.69,0,0,0,182.09-35,1374.13,1374.13,0,0,0,173.59-60.9,1346.12,1346.12,0,0,0,161.49-85.08c51.46-32.15,100-68.32,146.1-107l33.78-29.87c5.72-4.84,10.91-10.32,16.33-15.49l16.11-15.71c5.33-5.25,10.75-10.41,16-15.73l15.29-16.46,15.24-16.43c5.1-5.46,10.2-10.89,14.91-16.71l28.76-34.25c4.91-5.58,9.17-11.73,13.73-17.61l13.48-17.77,13.42-17.77,12.55-18.4,12.52-18.38c4.12-6.16,8.5-12.11,12.22-18.54l23.1-37.87c1.9-3.16,3.9-6.25,5.7-9.48l5.29-9.74,10.55-19.45,10.53-19.41c3.58-6.42,6.47-13.23,9.74-19.82l19-39.75L2985.81,2742C2981.84,2748.18,2978.24,2754.55,2974,2760.52Z" transform="translate(-573.12 -574.23)"/><path class="cls-1" d="M1478.66,2384.61h296.17l-26.19,133H1214.72l21.16-105.78L1557.24,2160q58.4-47.34,81.07-79.58t22.68-67.5q0-35.25-26.71-56.4t-77-21.16a184.26,184.26,0,0,0-81.61,19.14q-39.29,19.15-68.5,54.39l-109.8-79.57q43.31-59.44,118.86-94.19t165.22-34.75q73.54,0,129.45,24.17t86.63,67.5q30.72,43.3,30.73,97.7,0,65.49-36.27,122.91T1666,2239.55Z" transform="translate(-573.12 -574.23)"/><path class="cls-1" d="M2481,2369.5H2365.16l-29.22,148.08H2176.77L2207,2369.5H1827.21l21.15-109.81,415.05-447.28h178.31l-386.84,424.11h185.36l26.19-132h152.12l-26.2,132h115.86Z" transform="translate(-573.12 -574.23)"/><path class="cls-1" d="M2946.39,1669.36h147.08l-517.8,949H2429.61Z" transform="translate(-573.12 -574.23)"/><path class="cls-1" d="M3618.31,1812.41l-21.16,105.78-376.76,599.39H3039.06l361.66-572.19H3172l-23.17,114.83H3003.81l49.36-247.81Z" transform="translate(-573.12 -574.23)"/></svg>