<svg width="38" height="34" viewBox="0 0 38 34" fill="none" xmlns="http://www.w3.org/2000/svg">
<path d="M6.33333 8.5C7.16841 8.5 7.98473 8.25074 8.67907 7.78375C9.37341 7.31675 9.91459 6.65299 10.2342 5.87641C10.5537 5.09982 10.6373 4.24529 10.4744 3.42087C10.3115 2.59645 9.90938 1.83917 9.3189 1.2448C8.72841 0.650425 7.97608 0.245652 7.15705 0.0816645C6.33802 -0.0823227 5.48907 0.00184144 4.71756 0.323514C3.94605 0.645186 3.28663 1.18992 2.82268 1.88883C2.35874 2.58774 2.11111 3.40943 2.11111 4.25C2.11111 5.37717 2.55595 6.45818 3.34777 7.25521C4.13959 8.05224 5.21353 8.5 6.33333 8.5ZM6.33333 20.1928C6.33239 19.7957 6.41168 19.4026 6.56637 19.0373C6.72106 18.672 6.94793 18.3421 7.23319 18.0678L11.9918 13.5469C12.1006 13.4439 12.2405 13.3935 12.3619 13.3098C12.0514 12.5187 11.5119 11.8397 10.8134 11.3609C10.1148 10.8822 9.28952 10.6258 8.44444 10.625H4.22222C3.10242 10.625 2.02848 11.0728 1.23666 11.8698C0.44484 12.6668 0 13.7478 0 14.875L0 21.25C0 21.8136 0.22242 22.3541 0.61833 22.7526C1.01424 23.1511 1.55121 23.375 2.11111 23.375V31.875C2.11111 32.4386 2.33353 32.9791 2.72944 33.3776C3.12535 33.7761 3.66232 34 4.22222 34H8.44444C9.00435 34 9.54132 33.7761 9.93723 33.3776C10.3331 32.9791 10.5556 32.4386 10.5556 31.875V25.4741L7.23319 22.3178C6.94784 22.0436 6.72091 21.7138 6.56621 21.3484C6.41151 20.9831 6.33228 20.5899 6.33333 20.1928ZM31.6667 8.5C32.5017 8.5 33.3181 8.25074 34.0124 7.78375C34.7068 7.31675 35.2479 6.65299 35.5675 5.87641C35.8871 5.09982 35.9707 4.24529 35.8078 3.42087C35.6448 2.59645 35.2427 1.83917 34.6522 1.2448C34.0617 0.650425 33.3094 0.245652 32.4904 0.0816645C31.6714 -0.0823227 30.8224 0.00184144 30.0509 0.323514C29.2794 0.645186 28.62 1.18992 28.156 1.88883C27.6921 2.58774 27.4444 3.40943 27.4444 4.25C27.4444 5.37717 27.8893 6.45818 28.6811 7.25521C29.4729 8.05224 30.5469 8.5 31.6667 8.5ZM33.7778 10.625H29.5556C28.7106 10.6258 27.8853 10.8821 27.1868 11.3607C26.4882 11.8393 25.9487 12.5181 25.6381 13.3091C25.7595 13.3935 25.902 13.442 26.0089 13.5475L30.7668 18.0672C31.0512 18.3421 31.2775 18.6721 31.432 19.0372C31.5866 19.4024 31.6663 19.7952 31.6663 20.1922C31.6663 20.5891 31.5866 20.9819 31.432 21.3471C31.2775 21.7122 31.0512 22.0422 30.7668 22.3172L27.4444 25.4748V31.875C27.4444 32.4386 27.6669 32.9791 28.0628 33.3776C28.4587 33.7761 28.9957 34 29.5556 34H33.7778C34.3377 34 34.8747 33.7761 35.2706 33.3776C35.6665 32.9791 35.8889 32.4386 35.8889 31.875V23.375C36.4488 23.375 36.9858 23.1511 37.3817 22.7526C37.7776 22.3541 38 21.8136 38 21.25V14.875C38 13.7478 37.5552 12.6668 36.7633 11.8698C35.9715 11.0728 34.8976 10.625 33.7778 10.625ZM29.3181 19.6124L24.5601 15.0928C24.4478 14.9851 24.3065 14.9129 24.1538 14.8853C24.0011 14.8577 23.8437 14.8758 23.7012 14.9375C23.5586 14.9992 23.4372 15.1017 23.3521 15.2323C23.2669 15.3628 23.2218 15.5157 23.2222 15.6719V18.0625H14.7778V15.6719C14.7784 15.5156 14.7333 15.3627 14.6482 15.232C14.5631 15.1014 14.4417 14.9988 14.2991 14.937C14.1566 14.8752 13.9991 14.857 13.8463 14.8846C13.6936 14.9122 13.5522 14.9843 13.4399 15.0922L8.68194 19.6124C8.52986 19.7667 8.44452 19.9752 8.44452 20.1925C8.44452 20.4098 8.52986 20.6183 8.68194 20.7725L13.4399 25.2928C13.5522 25.4007 13.6937 25.4729 13.8465 25.5004C13.9993 25.528 14.1568 25.5097 14.2994 25.4478C14.442 25.386 14.5634 25.2833 14.6485 25.1525C14.7335 25.0218 14.7785 24.8687 14.7778 24.7124V22.3125H23.2222V24.7124C23.2215 24.8687 23.2665 25.0218 23.3515 25.1525C23.4366 25.2833 23.558 25.386 23.7006 25.4478C23.8432 25.5097 24.0007 25.528 24.1535 25.5004C24.3063 25.4729 24.4478 25.4007 24.5601 25.2928L29.3181 20.7725C29.4701 20.6183 29.5555 20.4098 29.5555 20.1925C29.5555 19.9752 29.4701 19.7667 29.3181 19.6124Z" fill="#E30613"/>
</svg>
