<svg width="20" height="20" viewBox="0 0 20 20" fill="none" xmlns="http://www.w3.org/2000/svg">
<path fill-rule="evenodd" clip-rule="evenodd" d="M0.802246 9.96282C0.802246 9.33193 1.32849 8.8205 1.97765 8.8205H18.4334C19.0825 8.8205 19.6088 9.33193 19.6088 9.96282C19.6088 10.5937 19.0825 11.1051 18.4334 11.1051H1.97765C1.32849 11.1051 0.802246 10.5937 0.802246 9.96282Z" fill="#C4C4C4"/>
<path fill-rule="evenodd" clip-rule="evenodd" d="M11.0367 1.1588C11.4957 1.6049 11.4957 2.32818 11.0367 2.77429L3.63993 9.96282L11.0367 17.1514C11.4957 17.5975 11.4957 18.3207 11.0367 18.7668C10.5776 19.213 9.8334 19.213 9.37438 18.7668L1.14652 10.7706C0.68749 10.3245 0.68749 9.60118 1.14652 9.15508L9.37438 1.1588C9.8334 0.712692 10.5776 0.712692 11.0367 1.1588Z" fill="#C4C4C4"/>
</svg>
