<svg id="Layer_1" data-name="Layer 1" xmlns="http://www.w3.org/2000/svg" viewBox="0 0 2164.87 2500"><defs><style>.cls-1{fill:#d9114c;}</style></defs><path class="cls-1" d="M2795.57,2863.23a258.75,258.75,0,0,1-258.73-258.74v-456a92.34,92.34,0,0,0-92.23-92.23V1943.74c112.89,0,204.74,91.85,204.74,204.75v456c0,80.63,65.59,146.22,146.22,146.22s146.23-65.59,146.23-146.22V1769.35h112.51v835.14a258.75,258.75,0,0,1-258.74,258.74Z" transform="translate(-917.57 -750)"/><path class="cls-1" d="M2392.79,3029.53V829.68A79.67,79.67,0,0,0,2313.11,750H1137.68A79.67,79.67,0,0,0,1058,829.68V3029.53ZM1895.13,1723.32H1555.66a36.92,36.92,0,1,1,0-73.84h339.47a36.92,36.92,0,1,1,0,73.84Zm-660.69-808h981.91V1426.7H1234.44Z" transform="translate(-917.57 -750)"/><path class="cls-1" d="M2392.79,3097.5v-.05H1058v.05A153,153,0,0,0,917.57,3250H2533.23A153,153,0,0,0,2392.79,3097.5Z" transform="translate(-917.57 -750)"/><path class="cls-1" d="M2913.67,1611.84a84.08,84.08,0,0,0,4.44,27H3078a84.08,84.08,0,0,0,4.44-27V1433.1A194.84,194.84,0,0,0,3025,1294.42l-271.74-271.74A84.38,84.38,0,0,0,2633.91,1142L2747.6,1255.7c15.27,33.11,17.26,60.71-13.44,91.41-31.69,31.69-40.31,70.48-24.26,109.23,21.19,51.16,79.22,85.89,111.92,102a406.46,406.46,0,0,0,91.85,32.36Zm-62-114c-40.57-20-70.27-45.2-79.43-67.34-4-9.56-5.54-20.49,9.62-35.65,20.11-20.11,33.37-41.9,39.72-65.14l84,84a27.19,27.19,0,0,1,8,19.35v88.12A343.36,343.36,0,0,1,2851.7,1497.84Z" transform="translate(-917.57 -750)"/></svg>