<svg id="Layer_9" data-name="Layer 9" xmlns="http://www.w3.org/2000/svg" viewBox="0 0 47.59 50"><defs><style>.cls-1{fill:#e1931a;}</style></defs><path class="cls-1" d="M63,73.74h-20V43.2H63v2.37a4.1,4.1,0,0,1,1.31-.23,4.75,4.75,0,0,1,.53,0V43.05a3.88,3.88,0,0,0-3.87-3.88H45A3.87,3.87,0,0,0,41.1,43V73.91A3.87,3.87,0,0,0,45,77.79h16a3.88,3.88,0,0,0,3.87-3.87V72.64H63ZM57.39,50.5l1.31-1.31a7.49,7.49,0,1,0-10.11,10.9,4,4,0,0,1,.82-1.68,5.66,5.66,0,1,1,8-7.91ZM76.6,57.89,66.25,47.54a2.79,2.79,0,0,0-4,0L56.74,53.1A2.79,2.79,0,0,0,56.67,57H67.06A3.91,3.91,0,0,1,71,60.87v6.59L71,67.4l5.56-5.56A2.79,2.79,0,0,0,76.6,57.89Zm-9.38-5.11-.9.9a1.07,1.07,0,0,1-1.52,0l-2.07-2.06a1.09,1.09,0,0,1,0-1.52l.91-.91a1.07,1.07,0,0,1,1.52,0l2.06,2.07A1.07,1.07,0,0,1,67.22,52.78Zm-.16,5.29H52.42a2.8,2.8,0,0,0-2.79,2.8v7.86a2.8,2.8,0,0,0,2.79,2.8H67.06a2.8,2.8,0,0,0,2.79-2.8V60.87A2.8,2.8,0,0,0,67.06,58.07ZM52.42,59H67.06a1.83,1.83,0,0,1,1.82,1.66H50.6A1.83,1.83,0,0,1,52.42,59Zm16.48,9.7a1.84,1.84,0,0,1-1.84,1.84H52.42a1.84,1.84,0,0,1-1.84-1.84V63.18H68.9Zm-1.2-3.21H51.78v1.75H67.7ZM45.24,33.45a.92.92,0,1,0,0-1.84A11.6,11.6,0,0,0,33.65,43.2a.92.92,0,0,0,1.84,0A9.76,9.76,0,0,1,45.24,33.45Zm0-3.82a.92.92,0,1,0,0-1.84A15.42,15.42,0,0,0,29.83,43.2a.92.92,0,0,0,1.84,0A13.59,13.59,0,0,1,45.24,29.63Zm.92,6.29a.92.92,0,0,0-.92-.92A8.21,8.21,0,0,0,37,43.2a.92.92,0,0,0,1.84,0,6.38,6.38,0,0,1,6.36-6.36A.92.92,0,0,0,46.16,35.92Z" transform="translate(-29.83 -27.79)"/></svg>