<svg id="Layer_1" data-name="Layer 1" xmlns="http://www.w3.org/2000/svg" viewBox="0 0 48.29 49.86"><defs><style>.cls-1{fill:#c60;}.cls-2{fill:#fff;}.cls-3{fill:#06c;}.cls-4{fill:#06f;}</style></defs><path d="M60.15,65.76h-20V35.23h20v2.36a4.15,4.15,0,0,1,1.31-.23,4.75,4.75,0,0,1,.53,0V35.08a3.88,3.88,0,0,0-3.86-3.89h-16a3.88,3.88,0,0,0-3.87,3.88V65.93a3.88,3.88,0,0,0,3.87,3.88h16A3.87,3.87,0,0,0,62,65.93V64.66H60.15Z" transform="translate(-26.09 -19.95)"/><path d="M55,41.66l1.31-1.31A7.5,7.5,0,1,0,46.18,51.26,3.87,3.87,0,0,1,47,49.57a5.66,5.66,0,1,1,8-7.91Z" transform="translate(-26.09 -19.95)"/><path class="cls-1" d="M73.57,50.3,63.22,40a2.79,2.79,0,0,0-3.95,0l-5.56,5.56a2.8,2.8,0,0,0-.08,3.86H64a3.91,3.91,0,0,1,3.91,3.9v6.6l.08-.06,5.56-5.56A2.79,2.79,0,0,0,73.57,50.3Z" transform="translate(-26.09 -19.95)"/><rect class="cls-2" x="60.23" y="42.31" width="3.43" height="5.07" rx="1.07" transform="translate(-39.66 36.99) rotate(-45)"/><rect class="cls-3" x="20.43" y="30.29" width="20.22" height="13.45" rx="2.79"/><path class="cls-4" d="M49.31,51.2H64a1.83,1.83,0,0,1,1.82,1.65H47.49A1.84,1.84,0,0,1,49.31,51.2Z" transform="translate(-26.09 -19.95)"/><path class="cls-4" d="M65.79,60.9A1.84,1.84,0,0,1,64,62.74H49.31a1.84,1.84,0,0,1-1.84-1.84V55.34H65.79Z" transform="translate(-26.09 -19.95)"/><path d="M41.51,25.6a.92.92,0,1,0,0-1.84,11.61,11.61,0,0,0-11.6,11.6.92.92,0,0,0,1.84,0A9.77,9.77,0,0,1,41.51,25.6Z" transform="translate(-26.09 -19.95)"/><path d="M41.51,21.79a.92.92,0,1,0,0-1.84A15.43,15.43,0,0,0,26.09,35.36a.92.92,0,1,0,1.84,0A13.59,13.59,0,0,1,41.51,21.79Z" transform="translate(-26.09 -19.95)"/><path d="M42.43,28.08a.92.92,0,0,0-.92-.92,8.21,8.21,0,0,0-8.21,8.2.92.92,0,0,0,1.84,0A6.37,6.37,0,0,1,41.51,29,.92.92,0,0,0,42.43,28.08Z" transform="translate(-26.09 -19.95)"/></svg>