<svg width="37" height="35" viewBox="0 0 37 35" fill="none" xmlns="http://www.w3.org/2000/svg">
<path d="M6.4499 7.075C6.4499 5.82185 6.94771 4.62003 7.83382 3.73392C8.71993 2.84781 9.92175 2.35 11.1749 2.35C12.4281 2.35 13.6299 2.84781 14.516 3.73392C15.4021 4.62003 15.8999 5.82185 15.8999 7.075C15.8999 8.32815 15.4021 9.52997 14.516 10.4161C13.6299 11.3022 12.4281 11.8 11.1749 11.8C9.92175 11.8 8.71993 11.3022 7.83382 10.4161C6.94771 9.52997 6.4499 8.32815 6.4499 7.075ZM11.1749 0.25C9.3648 0.25 7.62883 0.96906 6.3489 2.249C5.06896 3.52893 4.3499 5.2649 4.3499 7.075C4.3499 8.8851 5.06896 10.6211 6.3489 11.901C7.62883 13.1809 9.3648 13.9 11.1749 13.9C12.985 13.9 14.721 13.1809 16.0009 11.901C17.2808 10.6211 17.9999 8.8851 17.9999 7.075C17.9999 5.2649 17.2808 3.52893 16.0009 2.249C14.721 0.96906 12.985 0.25 11.1749 0.25ZM0.149902 20.2C0.149902 19.0861 0.592401 18.0178 1.38005 17.2302C2.16771 16.4425 3.23599 16 4.3499 16H17.9999C18.7312 15.9994 19.45 16.1898 20.0852 16.5523C19.5035 17.0353 18.9701 17.5729 18.4934 18.1588C18.3318 18.1199 18.1661 18.1001 17.9999 18.1H4.3499C3.79295 18.1 3.2588 18.3213 2.86498 18.7151C2.47115 19.1089 2.2499 19.643 2.2499 20.2V20.3638L2.2646 20.5381C2.37839 21.5448 2.73749 22.5082 3.3104 23.3437C4.3331 24.8221 6.4772 26.5 11.1749 26.5C13.1783 26.5 14.7176 26.1955 15.9041 25.7293C15.9209 26.4643 16.007 27.1783 16.1561 27.8713C14.8016 28.327 13.1615 28.6 11.1749 28.6C5.8976 28.6 3.0542 26.668 1.5821 24.5386C0.806833 23.4094 0.323431 22.1056 0.175102 20.7439C0.162554 20.6217 0.154149 20.4991 0.149902 20.3764V20.2ZM24.2999 8.65C24.2999 7.81457 24.6318 7.01335 25.2225 6.42261C25.8133 5.83187 26.6145 5.5 27.4499 5.5C28.2853 5.5 29.0865 5.83187 29.6773 6.42261C30.268 7.01335 30.5999 7.81457 30.5999 8.65C30.5999 9.48543 30.268 10.2866 29.6773 10.8774C29.0865 11.4681 28.2853 11.8 27.4499 11.8C26.6145 11.8 25.8133 11.4681 25.2225 10.8774C24.6318 10.2866 24.2999 9.48543 24.2999 8.65ZM27.4499 3.4C26.0575 3.4 24.7222 3.95312 23.7376 4.93769C22.753 5.92226 22.1999 7.25761 22.1999 8.65C22.1999 10.0424 22.753 11.3777 23.7376 12.3623C24.7222 13.3469 26.0575 13.9 27.4499 13.9C28.8423 13.9 30.1776 13.3469 31.1622 12.3623C32.1468 11.3777 32.6999 10.0424 32.6999 8.65C32.6999 7.25761 32.1468 5.92226 31.1622 4.93769C30.1776 3.95312 28.8423 3.4 27.4499 3.4ZM36.8999 25.45C36.8999 27.9563 35.9043 30.3599 34.1321 32.1322C32.3598 33.9044 29.9562 34.9 27.4499 34.9C24.9436 34.9 22.54 33.9044 20.7677 32.1322C18.9955 30.3599 17.9999 27.9563 17.9999 25.45C17.9999 22.9437 18.9955 20.5401 20.7677 18.7678C22.54 16.9956 24.9436 16 27.4499 16C29.9562 16 32.3598 16.9956 34.1321 18.7678C35.9043 20.5401 36.8999 22.9437 36.8999 25.45ZM32.3933 21.5566C32.2958 21.4588 32.1799 21.3812 32.0523 21.3283C31.9248 21.2754 31.788 21.2481 31.6499 21.2481C31.5118 21.2481 31.375 21.2754 31.2475 21.3283C31.1199 21.3812 31.004 21.4588 30.9065 21.5566L25.3499 27.1153L23.9933 25.7566C23.7961 25.5594 23.5287 25.4487 23.2499 25.4487C22.9711 25.4487 22.7037 25.5594 22.5065 25.7566C22.3093 25.9538 22.1986 26.2212 22.1986 26.5C22.1986 26.7788 22.3093 27.0462 22.5065 27.2434L24.6065 29.3434C24.704 29.4412 24.8199 29.5188 24.9475 29.5717C25.075 29.6246 25.2118 29.6519 25.3499 29.6519C25.488 29.6519 25.6248 29.6246 25.7523 29.5717C25.8799 29.5188 25.9958 29.4412 26.0933 29.3434L32.3933 23.0434C32.4911 22.9459 32.5687 22.83 32.6216 22.7024C32.6745 22.5749 32.7018 22.4381 32.7018 22.3C32.7018 22.1619 32.6745 22.0251 32.6216 21.8976C32.5687 21.77 32.4911 21.6541 32.3933 21.5566Z" fill="#E30613"/>
</svg>
