<svg id="Main" xmlns="http://www.w3.org/2000/svg" viewBox="0 0 780 669.4"><defs><style>.cls-1,.cls-2{fill:#1fa6e9;}.cls-2{font-size:320.46px;font-family:MyriadPro-Regular, Myriad Pro;}</style></defs><g id="Element"><path class="cls-1" d="M984.29,613.86,929,558.56a19.51,19.51,0,0,0-27.58,0l-55.3,55.3a19.5,19.5,0,0,0,27.58,27.58L895,620.11A295.7,295.7,0,0,1,600,895.7a19.5,19.5,0,0,0,0,39A334.68,334.68,0,0,0,934.16,618.89l22.55,22.55a19.5,19.5,0,1,0,27.58-27.58Z" transform="translate(-210 -265.3)"/><path class="cls-1" d="M326.31,558.56,305,579.89A295.71,295.71,0,0,1,600,304.3a19.5,19.5,0,0,0,0-39A334.68,334.68,0,0,0,265.84,581.11l-22.55-22.55a19.5,19.5,0,1,0-27.58,27.58l55.3,55.3a19.51,19.51,0,0,0,27.58,0l55.3-55.3a19.5,19.5,0,1,0-27.58-27.58Z" transform="translate(-210 -265.3)"/><path class="cls-1" d="M517.05,895.7H483.87a19.5,19.5,0,0,0,0,39h33.18a19.5,19.5,0,0,0,0-39Z" transform="translate(-210 -265.3)"/><path class="cls-1" d="M417.51,895.7H384.34a19.5,19.5,0,1,0,0,39h33.17a19.5,19.5,0,0,0,0-39Z" transform="translate(-210 -265.3)"/><path class="cls-1" d="M318,895.7H284.8a19.5,19.5,0,1,0,0,39H318a19.5,19.5,0,0,0,0-39Z" transform="translate(-210 -265.3)"/><path class="cls-1" d="M882,304.3H915.2a19.5,19.5,0,0,0,0-39H882a19.5,19.5,0,0,0,0,39Z" transform="translate(-210 -265.3)"/><path class="cls-1" d="M782.48,304.3h33.18a19.5,19.5,0,0,0,0-39H782.48a19.5,19.5,0,0,0,0,39Z" transform="translate(-210 -265.3)"/><path class="cls-1" d="M683,304.3h33.18a19.5,19.5,0,0,0,0-39H683a19.5,19.5,0,0,0,0,39Z" transform="translate(-210 -265.3)"/><path class="cls-1" d="M818.57,600c0-120.52-98.05-218.57-218.57-218.57S381.43,479.48,381.43,600,479.48,818.58,600,818.58,818.57,720.52,818.57,600Zm-398.14,0c0-99,80.55-179.57,179.57-179.57S779.57,501,779.57,600,699,779.58,600,779.58,420.43,699,420.43,600Z" transform="translate(-210 -265.3)"/><text class="cls-2" transform="translate(284.46 440.19) scale(1.05 1)">€</text></g></svg>