<svg width="47" height="29" viewBox="0 0 47 29" fill="none" xmlns="http://www.w3.org/2000/svg">
<path d="M4.375 0.875C2.01625 0.875 0.125 2.76625 0.125 5.125V22.125H4.375C4.375 23.8158 5.04665 25.4373 6.24219 26.6328C7.43774 27.8284 9.05925 28.5 10.75 28.5C12.4408 28.5 14.0623 27.8284 15.2578 26.6328C16.4534 25.4373 17.125 23.8158 17.125 22.125H29.875C29.875 23.8158 30.5466 25.4373 31.7422 26.6328C32.9377 27.8284 34.5592 28.5 36.25 28.5C37.9408 28.5 39.5623 27.8284 40.7578 26.6328C41.9534 25.4373 42.625 23.8158 42.625 22.125H46.875V13.625C46.875 11.2662 44.9837 9.375 42.625 9.375L36.25 0.875H4.375ZM29.875 4.0625H35.1875L39.3525 9.375H29.875V4.0625ZM10.75 18.9375C11.5954 18.9375 12.4061 19.2733 13.0039 19.8711C13.6017 20.4689 13.9375 21.2796 13.9375 22.125C13.9375 22.9704 13.6017 23.7811 13.0039 24.3789C12.4061 24.9767 11.5954 25.3125 10.75 25.3125C9.90462 25.3125 9.09387 24.9767 8.4961 24.3789C7.89832 23.7811 7.5625 22.9704 7.5625 22.125C7.5625 21.2796 7.89832 20.4689 8.4961 19.8711C9.09387 19.2733 9.90462 18.9375 10.75 18.9375ZM36.25 18.9375C37.0954 18.9375 37.9061 19.2733 38.5039 19.8711C39.1017 20.4689 39.4375 21.2796 39.4375 22.125C39.4375 22.9704 39.1017 23.7811 38.5039 24.3789C37.9061 24.9767 37.0954 25.3125 36.25 25.3125C35.4046 25.3125 34.5939 24.9767 33.9961 24.3789C33.3983 23.7811 33.0625 22.9704 33.0625 22.125C33.0625 21.2796 33.3983 20.4689 33.9961 19.8711C34.5939 19.2733 35.4046 18.9375 36.25 18.9375Z" fill="#E30613"/>
</svg>
