<svg width="34" height="34" viewBox="0 0 34 34" fill="none" xmlns="http://www.w3.org/2000/svg">
<path d="M29.8333 0.5H4.16667C2.15 0.5 0.5 2.15 0.5 4.16667V29.8333C0.5 31.85 2.15 33.5 4.16667 33.5H29.8333C31.85 33.5 33.5 31.85 33.5 29.8333V4.16667C33.5 2.15 31.85 0.5 29.8333 0.5ZM17 6C20.5383 6 23.4167 8.87833 23.4167 12.4167C23.4167 15.955 20.5383 18.8333 17 18.8333C13.4617 18.8333 10.5833 15.955 10.5833 12.4167C10.5833 8.87833 13.4617 6 17 6ZM29.8333 29.8333H4.16667V29.4117C4.16667 28.275 4.68 27.2117 5.56 26.515C8.695 24.0033 12.6733 22.5 17 22.5C21.3267 22.5 25.305 24.0033 28.44 26.515C29.32 27.2117 29.8333 28.2933 29.8333 29.4117V29.8333Z" fill="#E30613"/>
</svg>
