<svg width="43" height="33" viewBox="0 0 43 33" fill="none" xmlns="http://www.w3.org/2000/svg">
<path d="M37.3333 8H32V1.33333C32 0.979711 31.8595 0.640573 31.6095 0.390525C31.3594 0.140476 31.0203 0 30.6667 0H1.33333C0.979711 0 0.640573 0.140476 0.390524 0.390525C0.140476 0.640573 0 0.979711 0 1.33333V25.3333C0 25.687 0.140476 26.0261 0.390524 26.2761C0.640573 26.5262 0.979711 26.6667 1.33333 26.6667H2.66667V2.66667H29.3333V20.6533C28.5167 20.9133 27.7661 21.347 27.1332 21.9248C26.5002 22.5025 25.9999 23.2105 25.6667 24H16.5733C16.1144 22.9055 15.3412 21.9716 14.3516 21.3166C13.3619 20.6615 12.2002 20.3147 11.0133 20.32C9.8857 20.3449 8.7894 20.6958 7.85688 21.3303C6.92437 21.9648 6.19554 22.8557 5.75846 23.8955C5.32138 24.9353 5.19475 26.0794 5.39387 27.1896C5.59299 28.2998 6.10934 29.3285 6.88053 30.1516C7.65172 30.9747 8.64476 31.5568 9.73966 31.8277C10.8346 32.0985 11.9845 32.0466 13.0505 31.678C14.1165 31.3094 15.0529 30.6401 15.7467 29.7508C16.4405 28.8615 16.8619 27.7903 16.96 26.6667H25.3333C25.489 28.1336 26.1818 29.491 27.2786 30.4775C28.3753 31.464 29.7982 32.0098 31.2733 32.0098C32.7485 32.0098 34.1714 31.464 35.2681 30.4775C36.3648 29.491 37.0577 28.1336 37.2133 26.6667H42.6667V13.3333C42.6667 11.9188 42.1048 10.5623 41.1046 9.5621C40.1044 8.5619 38.7478 8 37.3333 8ZM11.0133 29.3333C10.5802 29.3615 10.1459 29.3004 9.7373 29.154C9.32869 29.0076 8.95447 28.7789 8.63776 28.4821C8.32106 28.1853 8.06861 27.8267 7.89603 27.4284C7.72345 27.0301 7.63441 26.6007 7.63441 26.1667C7.63441 25.7326 7.72345 25.3032 7.89603 24.9049C8.06861 24.5067 8.32106 24.148 8.63776 23.8512C8.95447 23.5544 9.32869 23.3257 9.7373 23.1793C10.1459 23.0329 10.5802 22.9719 11.0133 23C11.4465 22.9719 11.8808 23.0329 12.2894 23.1793C12.698 23.3257 13.0722 23.5544 13.3889 23.8512C13.7056 24.148 13.9581 24.5067 14.1306 24.9049C14.3032 25.3032 14.3923 25.7326 14.3923 26.1667C14.3923 26.6007 14.3032 27.0301 14.1306 27.4284C13.9581 27.8267 13.7056 28.1853 13.3889 28.4821C13.0722 28.7789 12.698 29.0076 12.2894 29.154C11.8808 29.3004 11.4465 29.3615 11.0133 29.3333ZM31.24 29.3333C30.6196 29.302 30.022 29.0893 29.5214 28.7215C29.0207 28.3538 28.639 27.8471 28.4236 27.2645C28.2082 26.6818 28.1685 26.0487 28.3095 25.4438C28.4505 24.8388 28.766 24.2885 29.2168 23.8611C29.6676 23.4337 30.234 23.148 30.8456 23.0395C31.4573 22.931 32.0873 23.0044 32.6577 23.2506C33.228 23.4968 33.7136 23.9049 34.0541 24.4245C34.3946 24.944 34.5752 25.5521 34.5733 26.1733C34.5613 26.6006 34.4651 27.0213 34.2903 27.4114C34.1156 27.8015 33.8656 28.1534 33.5548 28.4469C33.244 28.7403 32.8784 28.9697 32.479 29.1218C32.0795 29.2739 31.6539 29.3458 31.2267 29.3333H31.24ZM40 14.6667H32V10.6667H37.3333C38.0406 10.6667 38.7189 10.9476 39.219 11.4477C39.719 11.9478 40 12.6261 40 13.3333V14.6667Z" fill="#E30613"/>
</svg>
